TITLE ""
FILE "P1Q_j_1801-1813.mp3" MP3
  TRACK 01 AUDIO
    TITLE "P1Q_j_1801-1813_01"
    INDEX 01 00:00:00
  TRACK 02 AUDIO
    TITLE "P1Q_j_1801-1813_02"
    INDEX 01 00:00:10
  TRACK 03 AUDIO
    TITLE "P1Q_j_1801-1813_03"
    INDEX 01 00:02:15
  TRACK 04 AUDIO
    TITLE "P1Q_j_1801-1813_04"
    INDEX 01 00:02:62
  TRACK 05 AUDIO
    TITLE "P1Q_j_1801-1813_05"
    INDEX 01 00:04:22
  TRACK 06 AUDIO
    TITLE "P1Q_j_1801-1813_06"
    INDEX 01 00:04:41
  TRACK 07 AUDIO
    TITLE "P1Q_j_1801-1813_07"
    INDEX 01 00:08:35
  TRACK 08 AUDIO
    TITLE "P1Q_j_1801-1813_08"
    INDEX 01 00:08:55
  TRACK 09 AUDIO
    TITLE "P1Q_j_1801-1813_09"
    INDEX 01 00:13:23
  TRACK 10 AUDIO
    TITLE "P1Q_j_1801-1813_10"
    INDEX 01 00:13:68
  TRACK 11 AUDIO
    TITLE "P1Q_j_1801-1813_11"
    INDEX 01 00:15:27
  TRACK 12 AUDIO
    TITLE "P1Q_j_1801-1813_12"
    INDEX 01 00:15:43
  TRACK 13 AUDIO
    TITLE "P1Q_j_1801-1813_13"
    INDEX 01 00:20:15
  TRACK 14 AUDIO
    TITLE "P1Q_j_1801-1813_14"
    INDEX 01 00:20:37
  TRACK 15 AUDIO
    TITLE "P1Q_j_1801-1813_15"
    INDEX 01 00:25:22
  TRACK 16 AUDIO
    TITLE "P1Q_j_1801-1813_16"
    INDEX 01 00:25:67
  TRACK 17 AUDIO
    TITLE "P1Q_j_1801-1813_17"
    INDEX 01 00:27:21
  TRACK 18 AUDIO
    TITLE "P1Q_j_1801-1813_18"
    INDEX 01 00:27:44
  TRACK 19 AUDIO
    TITLE "P1Q_j_1801-1813_19"
    INDEX 01 00:32:44
  TRACK 20 AUDIO
    TITLE "P1Q_j_1801-1813_20"
    INDEX 01 00:32:65
  TRACK 21 AUDIO
    TITLE "P1Q_j_1801-1813_21"
    INDEX 01 00:38:30
  TRACK 22 AUDIO
    TITLE "P1Q_j_1801-1813_22"
    INDEX 01 00:39:01
  TRACK 23 AUDIO
    TITLE "P1Q_j_1801-1813_23"
    INDEX 01 00:40:37
  TRACK 24 AUDIO
    TITLE "P1Q_j_1801-1813_24"
    INDEX 01 00:40:57
  TRACK 25 AUDIO
    TITLE "P1Q_j_1801-1813_25"
    INDEX 01 00:42:64
  TRACK 26 AUDIO
    TITLE "P1Q_j_1801-1813_26"
    INDEX 01 00:43:08
  TRACK 27 AUDIO
    TITLE "P1Q_j_1801-1813_27"
    INDEX 01 00:47:12
  TRACK 28 AUDIO
    TITLE "P1Q_j_1801-1813_28"
    INDEX 01 00:47:57
  TRACK 29 AUDIO
    TITLE "P1Q_j_1801-1813_29"
    INDEX 01 00:49:07
  TRACK 30 AUDIO
    TITLE "P1Q_j_1801-1813_30"
    INDEX 01 00:49:26
  TRACK 31 AUDIO
    TITLE "P1Q_j_1801-1813_31"
    INDEX 01 00:55:21
  TRACK 32 AUDIO
    TITLE "P1Q_j_1801-1813_32"
    INDEX 01 00:55:41
  TRACK 33 AUDIO
    TITLE "P1Q_j_1801-1813_33"
    INDEX 01 00:58:68
  TRACK 34 AUDIO
    TITLE "P1Q_j_1801-1813_34"
    INDEX 01 00:59:39
  TRACK 35 AUDIO
    TITLE "P1Q_j_1801-1813_35"
    INDEX 01 01:01:63
  TRACK 36 AUDIO
    TITLE "P1Q_j_1801-1813_36"
    INDEX 01 01:02:07
  TRACK 37 AUDIO
    TITLE "P1Q_j_1801-1813_37"
    INDEX 01 01:04:44
  TRACK 38 AUDIO
    TITLE "P1Q_j_1801-1813_38"
    INDEX 01 01:04:63
  TRACK 39 AUDIO
    TITLE "P1Q_j_1801-1813_39"
    INDEX 01 01:10:21
  TRACK 40 AUDIO
    TITLE "P1Q_j_1801-1813_40"
    INDEX 01 01:10:66
  TRACK 41 AUDIO
    TITLE "P1Q_j_1801-1813_41"
    INDEX 01 01:12:24
  TRACK 42 AUDIO
    TITLE "P1Q_j_1801-1813_42"
    INDEX 01 01:12:45
  TRACK 43 AUDIO
    TITLE "P1Q_j_1801-1813_43"
    INDEX 01 01:14:52
  TRACK 44 AUDIO
    TITLE "P1Q_j_1801-1813_44"
    INDEX 01 01:14:71
  TRACK 45 AUDIO
    TITLE "P1Q_j_1801-1813_45"
    INDEX 01 01:19:67
  TRACK 46 AUDIO
    TITLE "P1Q_j_1801-1813_46"
    INDEX 01 01:20:37
  TRACK 47 AUDIO
    TITLE "P1Q_j_1801-1813_47"
    INDEX 01 01:22:42
  TRACK 48 AUDIO
    TITLE "P1Q_j_1801-1813_48"
    INDEX 01 01:22:63
  TRACK 49 AUDIO
    TITLE "P1Q_j_1801-1813_49"
    INDEX 01 01:27:05
  TRACK 50 AUDIO
    TITLE "P1Q_j_1801-1813_50"
    INDEX 01 01:27:25
  TRACK 51 AUDIO
    TITLE "P1Q_j_1801-1813_51"
    INDEX 01 01:32:36
  TRACK 52 AUDIO
    TITLE "P1Q_j_1801-1813_52"
    INDEX 01 01:33:06
  TRACK 53 AUDIO
    TITLE "P1Q_j_1801-1813_53"
    INDEX 01 01:34:58
  TRACK 54 AUDIO
    TITLE "P1Q_j_1801-1813_54"
    INDEX 01 01:35:03
  TRACK 55 AUDIO
    TITLE "P1Q_j_1801-1813_55"
    INDEX 01 01:39:01
  TRACK 56 AUDIO
    TITLE "P1Q_j_1801-1813_56"
    INDEX 01 01:39:18
  TRACK 57 AUDIO
    TITLE "P1Q_j_1801-1813_57"
    INDEX 01 01:44:18
  TRACK 58 AUDIO
    TITLE "P1Q_j_1801-1813_58"
    INDEX 01 01:44:63
  TRACK 59 AUDIO
    TITLE "P1Q_j_1801-1813_59"
    INDEX 01 01:46:18
  TRACK 60 AUDIO
    TITLE "P1Q_j_1801-1813_60"
    INDEX 01 01:46:38
  TRACK 61 AUDIO
    TITLE "P1Q_j_1801-1813_61"
    INDEX 01 01:51:27
  TRACK 62 AUDIO
    TITLE "P1Q_j_1801-1813_62"
    INDEX 01 01:51:45
  TRACK 63 AUDIO
    TITLE "P1Q_j_1801-1813_63"
    INDEX 01 01:56:50
  TRACK 64 AUDIO
    TITLE "P1Q_j_1801-1813_64"
    INDEX 01 01:57:20
  TRACK 65 AUDIO
    TITLE "P1Q_j_1801-1813_65"
    INDEX 01 01:58:41
  TRACK 66 AUDIO
    TITLE "P1Q_j_1801-1813_66"
    INDEX 01 01:58:65
  TRACK 67 AUDIO
    TITLE "P1Q_j_1801-1813_67"
    INDEX 01 02:03:48
  TRACK 68 AUDIO
    TITLE "P1Q_j_1801-1813_68"
    INDEX 01 02:03:70
  TRACK 69 AUDIO
    TITLE "P1Q_j_1801-1813_69"
    INDEX 01 02:07:58
  TRACK 70 AUDIO
    TITLE "P1Q_j_1801-1813_70"
    INDEX 01 02:08:28
  TRACK 71 AUDIO
    TITLE "P1Q_j_1801-1813_71"
    INDEX 01 02:09:67
  TRACK 72 AUDIO
    TITLE "P1Q_j_1801-1813_72"
    INDEX 01 02:10:15
  TRACK 73 AUDIO
    TITLE "P1Q_j_1801-1813_73"
    INDEX 01 02:14:19
  TRACK 74 AUDIO
    TITLE "P1Q_j_1801-1813_74"
    INDEX 01 02:14:36
  TRACK 75 AUDIO
    TITLE "P1Q_j_1801-1813_75"
    INDEX 01 02:19:20
  TRACK 76 AUDIO
    TITLE "P1Q_j_1801-1813_76"
    INDEX 01 02:19:65
  TRACK 77 AUDIO
    TITLE "P1Q_j_1801-1813_77"
    INDEX 01 02:21:15
  TRACK 78 AUDIO
    TITLE "P1Q_j_1801-1813_78"
    INDEX 01 02:21:40
  TRACK 79 AUDIO
    TITLE "P1Q_j_1801-1813_79"
    INDEX 01 02:25:68
  TRACK 80 AUDIO
    TITLE "P1Q_j_1801-1813_80"
    INDEX 01 02:26:12
  TRACK 81 AUDIO
    TITLE "P1Q_j_1801-1813_81"
    INDEX 01 02:31:19
